#!OML:ASF I:\Actors\actors\Patient Classification 1\Patient 1\Session 1\Subject1.ASF
:FULLY-SPECIFIED
:DEGREES
962
root 0.0526682 17.689 8.39312 19.2272 -12.7131 -7.72552
lowerback 6.49456 -4.41429 1.6115
upperback -9.30207 -5.36069 4.5607
thorax -13.5251 -2.44745 5.1042
lowerneck -5.82515 -16.0118 -10.5887
upperneck 17.9001 -22.7044 8.79258
head 8.75928 -10.8746 2.04152
rclavicle -2.28025e-014 1.05356e-014
rhumerus 13.3301 30.4932 -48.1532
rradius 121.461
rwrist -0.881558
rhand 48.3001 -60.1052
rfingers 7.12502
rthumb 68.8015 -59.3221
lclavicle -2.28025e-014 1.05356e-014
lhumerus 6.56757 -35.768 65.2328
lradius 117.345
lwrist 10.0556
lhand 58.7273 3.72343
lfingers 7.12502
lthumb 74.2755 -24.2695
rfemur -17.9747 29.1618 14.9374
rtibia 2.52261
rfoot -7.9777 -20.2376
rtoes -3.07422
lfemur -1.00974 -51.6147 -9.21996
ltibia -5.77671
lfoot -69.5078 55.6908
ltoes 42.2785
963
root 0.116894 17.6895 8.40772 18.9245 -12.006 -7.80805
lowerback 6.32782 -4.43683 1.2756
upperback -9.3767 -5.43735 4.58223
thorax -13.4671 -2.45133 5.31407
lowerneck -5.53327 -16.1798 -10.5362
upperneck 17.985 -23.0048 8.84438
head 8.76852 -11.0202 2.02706
rclavicle -5.32634e-014 4.73108e-014
rhumerus 12.5335 30.8807 -48.7411
rradius 121.735
rwrist -1.03787
rhand 48.4317 -59.8249
rfingers 7.12502
rthumb 68.8931 -58.7975
lclavicle -5.32634e-014 4.73108e-014
lhumerus 6.26473 -36.0956 65.353
lradius 117.476
lwrist 10.1964
lhand 58.021 4.13279
lfingers 7.12502
lthumb 74.055 -21.4944
rfemur -17.4509 29.1494 15.0808
rtibia 2.49882
rfoot -8.24339 -20.9195
rtoes -2.92627
lfemur -1.00411 -52.3598 -9.2827
ltibia -5.55535
lfoot -68.9072 56.5668
ltoes 41.4458
964
root 0.181308 17.6901 8.42139 18.6066 -11.3415 -7.87364
lowerback 6.04837 -4.46008 0.886256
upperback -9.37868 -5.52591 4.59579
thorax -13.2461 -2.46287 5.52484
lowerneck -5.00172 -16.2683 -10.5696
upperneck 17.8424 -23.2294 9.14689
head 8.69384 -11.1323 2.13946
rclavicle -5.79022e-014 -2.34566e-014
rhumerus 11.83 31.2243 -49.2858
rradius 122.062
rwrist -1.23569
rhand 48.547 -59.8759
rfingers 7.12502
rthumb 68.973 -58.6326
lclavicle -5.79022e-014 -2.34566e-014
lhumerus 6.06707 -36.3781 65.3877
lradius 117.614
lwrist 10.2382
lhand 56.976 4.66097
lfingers 7.12502
lthumb 73.6793 -17.5942
rfemur -16.9396 29.0435 15.2425
rtibia 2.51917
rfoot -8.38353 -21.4916
rtoes -3.45466
lfemur -0.894947 -53.0738 -9.43984
ltibia -5.41595
lfoot -68.2586 57.5348
ltoes 40.5804
965
root 0.24598 17.691 8.43575 18.2596 -10.74 -7.89315
lowerback 5.77457 -4.48621 0.438498
upperback -9.36244 -5.62445 4.59642
thorax -13.0015 -2.47607 5.75306
lowerneck -4.37748 -16.3278 -10.7878
upperneck 17.6473 -23.4583 9.72522
head 8.64597 -11.2423 2.36541
rclavicle 2.24937e-014 -2.5842e-014
rhumerus 11.2424 31.55 -49.7136
rradius 122.441
rwrist -1.43194
rhand 48.696 -60.1413
rfingers 7.12502
rthumb 69.0757 -58.6168
lclavicle 2.24937e-014 -2.5842e-014
lhumerus 5.92655 -36.6242 65.375
lradius 117.693
lwrist 10.2695
lhand 56.7652 4.69709
lfingers 7.12502
lthumb 73.5967 -16.8976
rfemur -16.3995 28.8733 15.3727
rtibia 2.54633
rfoot -8.52709 -21.9384
rtoes -3.95607
lfemur -0.642614 -53.7571 -9.79403
ltibia -5.28081
lfoot -67.7405 58.242
ltoes 39.9028
966
root 0.310608 17.6913 8.4502 17.9093 -10.22 -7.85158
lowerback 5.59578 -4.50935 -0.0626814
upperback -9.37784 -5.72354 4.56684
thorax -12.851 -2.48279 5.99164
lowerneck -3.88264 -16.3772 -10.8737
upperneck 17.4969 -23.6562 10.1906
head 8.60301 -11.3339 2.53401
rclavicle -6.05424e-014 2.46493e-014
rhumerus 10.6851 31.9071 -50.1332
rradius 122.749
rwrist -1.57821
rhand 48.967 -60.306
rfingers 7.12502
rthumb 69.2613 -58.2624
lclavicle -6.05424e-014 2.46493e-014
lhumerus 5.88872 -36.848 65.2383
lradius 117.694
lwrist 10.3915
lhand 56.8754 4.31333
lfingers 7.12502
lthumb 73.6402 -17.6258
rfemur -15.8727 28.7276 15.4031
rtibia 2.56059
rfoot -8.67159 -22.333
rtoes -3.99453
lfemur -0.35329 -54.3843 -10.2828
ltibia -5.1082
lfoot -67.3743 58.666
ltoes 39.4296
967
root 0.373964 17.6893 8.46305 17.5952 -9.78193 -7.8286
lowerback 5.41739 -4.52751 -0.555686
upperback -9.39819 -5.81357 4.53051
thorax -12.7085 -2.48673 6.21728
lowerneck -3.64516 -16.4652 -10.8147
upperneck 17.573 -23.858 10.3302
head 8.62182 -11.4258 2.55695
rclavicle -2.32827e-014 2.40529e-014
rhumerus 10.1848 32.2896 -50.6256
rradius 122.937
rwrist -1.63486
rhand 49.0218 -60.2257
rfingers 7.12502
rthumb 69.2986 -58.076
lclavicle -2.32827e-014 2.40529e-014
lhumerus 5.94045 -37.0199 64.9867
lradius 117.664
lwrist 10.5457
lhand 56.8702 4.05669
lfingers 7.12502
lthumb 73.6381 -17.8659
rfemur -15.4131 28.5769 15.4282
rtibia 2.58396
rfoot -8.74765 -22.6602
rtoes -3.87144
lfemur -0.00916968 -54.9147 -10.7816
ltibia -5.03204
lfoot -67.0041 59.1407
ltoes 38.927
968
root 0.436267 17.6853 8.47373 17.3277 -9.38833 -7.8792
lowerback 5.19777 -4.53585 -1.00877
upperback -9.4058 -5.87962 4.53539
thorax -12.5278 -2.48324 6.45646
lowerneck -3.70085 -16.709 -10.8335
upperneck 17.9311 -24.2101 10.1283
head 8.76892 -11.5945 2.42572
rclavicle -3.21658e-014 -1.78906e-014
rhumerus 9.816 32.6435 -51.0266
rradius 123.087
rwrist -1.57711
rhand 48.9057 -60.1283
rfingers 7.12502
rthumb 69.2195 -58.2029
lclavicle -3.21658e-014 -1.78906e-014
lhumerus 5.97406 -37.1356 64.7614
lradius 117.659
lwrist 10.6573
lhand 57.0387 4.15196
lfingers 7.12502
lthumb 73.7034 -18.3008
rfemur -15.032 28.4569 15.5066
rtibia 2.66927
rfoot -8.9808 -22.9367
rtoes -3.60339
lfemur 0.369592 -55.386 -11.2242
ltibia -4.9966
lfoot -66.7742 59.5059
ltoes 38.617
969
root 0.496257 17.6808 8.48381 17.0782 -9.00409 -7.94768
lowerback 4.98153 -4.5292 -1.4576
upperback -9.40503 -5.92244 4.53813
thorax -12.3431 -2.46999 6.68727
lowerneck -3.7729 -16.9485 -10.8455
upperneck 18.2964 -24.5668 9.96948
head 8.92694 -11.7603 2.30289
rclavicle 2.98177e-016 3.97569e-014
rhumerus 9.48879 32.8912 -51.3939
rradius 123.244
rwrist -1.45615
rhand 48.7264 -60.1645
rfingers 7.12502
rthumb 69.0967 -58.5822
lclavicle 2.98177e-016 3.97569e-014
lhumerus 6.05206 -37.2806 64.4976
lradius 117.675
lwrist 10.7891
lhand 57.0776 4.60264
lfingers 7.12502
lthumb 73.7183 -17.9733
rfemur -14.6763 28.5676 15.5584
rtibia 2.76654
rfoot -9.40632 -23.3557
rtoes -2.87643
lfemur 0.655058 -55.8239 -11.581
ltibia -4.88479
lfoot -66.5271 59.7947
ltoes 38.4284
970
root 0.554679 17.6753 8.49582 16.8269 -8.63538 -7.93546
lowerback 4.75126 -4.5259 -1.96796
upperback -9.40621 -5.97779 4.50476
thorax -12.1486 -2.46029 6.91264
lowerneck -3.63575 -17.0818 -10.8294
upperneck 18.4581 -24.8131 10.0187
head 8.99147 -11.8736 2.28353
rclavicle 3.29486e-014 -1.43125e-014
rhumerus 9.18316 33.0898 -51.8144
rradius 123.385
rwrist -1.32829
rhand 48.5495 -60.3007
rfingers 7.12502
rthumb 68.9747 -59.0528
lclavicle 3.29486e-014 -1.43125e-014
lhumerus 6.17515 -37.4384 64.2039
lradius 117.7
lwrist 10.8778
lhand 57.2163 4.8635
lfingers 7.12502
lthumb 73.7707 -18.1527
rfemur -14.2775 28.7358 15.5016
rtibia 2.759
rfoot -9.78031 -23.8376
rtoes -1.9772
lfemur 0.906381 -56.2668 -12.0046
ltibia -4.7627
lfoot -66.0954 60.2508
ltoes 38.0167
971
root 0.611869 17.6697 8.50852 16.5836 -8.25929 -7.90961
lowerback 4.5936 -4.5205 -2.46362
upperback -9.47125 -6.02832 4.4584
thorax -12.0772 -2.44359 7.13073
lowerneck -3.39221 -17.2121 -10.8043
upperneck 18.6162 -25.0452 9.98381
head 9.02172 -11.9923 2.25087
rclavicle 3.34455e-014 1.07344e-014
rhumerus 8.7716 33.3152 -52.2711
rradius 123.477
rwrist -1.26185
rhand 48.3947 -60.3571
rfingers 7.12502
rthumb 68.8674 -59.3987
lclavicle 3.34455e-014 1.07344e-014
lhumerus 6.19876 -37.6389 64.0253
lradius 117.695
lwrist 10.8891
lhand 57.5264 4.57908
lfingers 7.12502
lthumb 73.8843 -19.4321
rfemur -13.8278 28.7577 15.4613
rtibia 2.65546
rfoot -9.96891 -24.2516
rtoes -1.8088
lfemur 1.12594 -56.7081 -12.3893
ltibia -4.69983
lfoot -65.424 60.9117
ltoes 37.3631
972
root 0.665866 17.6661 8.52053 16.3797 -7.8655 -7.93886
lowerback 4.5209 -4.49291 -2.87891
upperback -9.59155 -6.04236 4.38949
thorax -12.1382 -2.40968 7.29119
lowerneck -2.98967 -17.2665 -10.8197
upperneck 18.7058 -25.235 10.2117
head 9.03899 -12.0841 2.32612
rclavicle -5.39203e-014 2.50469e-014
rhumerus 8.21515 33.4957 -52.7918
rradius 123.525
rwrist -1.26707
rhand 48.3236 -60.2624
rfingers 7.12502
rthumb 68.8179 -59.4358
lclavicle -5.39203e-014 2.50469e-014
lhumerus 6.24212 -37.9345 63.8316
lradius 117.668
lwrist 11.0134
lhand 58.2941 4.18154
lfingers 7.12502
lthumb 74.1435 -22.3523
rfemur -13.3793 28.8197 15.4866
rtibia 2.48247
rfoot -10.0789 -24.7414
rtoes -2.1002
lfemur 1.13144 -57.1288 -12.5022
ltibia -4.60588
lfoot -64.4751 61.7417
ltoes 36.4091
973
root 0.716993 17.6627 8.53286 16.2219 -7.49874 -7.97095
lowerback 4.33544 -4.46761 -3.33402
upperback -9.65562 -6.05989 4.32657
thorax -12.0598 -2.38197 7.46138
lowerneck -2.5566 -17.2869 -10.9583
upperneck 18.6643 -25.4275 10.7638
head 9.07008 -12.1651 2.51853
rclavicle 1.05853e-014 2.90226e-014
rhumerus 7.87464 33.5774 -53.2072
rradius 123.536
rwrist -1.35597
rhand 48.2924 -60.1944
rfingers 7.12502
rthumb 68.7962 -59.4255
lclavicle 1.05853e-014 2.90226e-014
lhumerus 6.49581 -38.1348 63.5158
lradius 117.652
lwrist 11.2873
lhand 59.478 3.84735
lfingers 7.12502
lthumb 74.4789 -26.7303
rfemur -12.9419 29.1044 15.4711
rtibia 2.22119
rfoot -10.3021 -25.3846
rtoes -1.85305
lfemur 1.01975 -57.5158 -12.5277
ltibia -4.44623
lfoot -63.5549 62.4724
ltoes 35.4477
974
root 0.767563 17.6594 8.54563 16.087 -7.15852 -7.98758
lowerback 4.07909 -4.44018 -3.8119
upperback -9.68346 -6.07164 4.27142
thorax -11.8942 -2.35487 7.6402
lowerneck -2.54333 -17.4976 -11.0601
upperneck 18.9471 -25.804 10.8728
head 9.24141 -12.3298 2.49091
rclavicle -1.88845e-015 -2.38542e-014
rhumerus 7.2965 33.51 -53.7376
rradius 123.535
rwrist -1.3476
rhand 48.5134 -59.7864
rfingers 7.12502
rthumb 68.9497 -58.6063
lclavicle -1.88845e-015 -2.38542e-014
lhumerus 6.76345 -38.2183 63.2464
lradius 117.644
lwrist 11.549
lhand 60.0553 3.58249
lfingers 7.12502
lthumb 74.6128 -29.0265
rfemur -12.5154 29.4903 15.4238
rtibia 1.93659
rfoot -10.5844 -26.0829
rtoes -1.22608
lfemur 0.973155 -57.8845 -12.6429
ltibia -4.30052
lfoot -62.7974 63.0733
ltoes 34.6643
